inDegrees=no
num_controls=7
num_derivatives=13
num_iterations=142
num_multipliers=7
num_parameters=0
num_slacks=7
num_states=26
objective=5.637360
objective_accelerations=0.719924
objective_balance=0.064256
objective_effort=0.371000
objective_height=4.437715
objective_ligament=0.044464
solver_duration=1601.331925
status=Solve_Succeeded
success=true
DataType=double
version=3
OpenSimVersion=4.4-2022-07-23-0e9fedc
endheader
time	/jointset/ground_pelvis/pelvis_tilt/value	/jointset/ground_pelvis/pelvis_tx/value	/jointset/ground_pelvis/pelvis_ty/value	/jointset/hip_l/hip_flexion_l/value	/jointset/hip_l/hip_adduction_l/value	/jointset/hip_l/hip_rotation_l/value	/jointset/back/lumbar_extension/value	/jointset/patellofemoral_l/patellar_flexion_l/value	/jointset/knee_l/knee_flexion_l/value	/jointset/knee_l/knee_adduction_l/value	/jointset/knee_l/knee_rotation_l/value	/jointset/ankle_l/ankle_angle_l/value	/jointset/subtalar_l/subtalar_angle_l/value	/jointset/ground_pelvis/pelvis_tilt/speed	/jointset/ground_pelvis/pelvis_tx/speed	/jointset/ground_pelvis/pelvis_ty/speed	/jointset/hip_l/hip_flexion_l/speed	/jointset/hip_l/hip_adduction_l/speed	/jointset/hip_l/hip_rotation_l/speed	/jointset/back/lumbar_extension/speed	/jointset/patellofemoral_l/patellar_flexion_l/speed	/jointset/knee_l/knee_flexion_l/speed	/jointset/knee_l/knee_adduction_l/speed	/jointset/knee_l/knee_rotation_l/speed	/jointset/ankle_l/ankle_angle_l/speed	/jointset/subtalar_l/subtalar_angle_l/speed	/forceset/tau_hip_flexion_l	/forceset/tau_hip_adduction_l	/forceset/tau_hip_rotation_l	/forceset/tau_knee_flexion_l	/forceset/tau_ankle_angle_l	/forceset/tau_subtalar_angle_l	/forceset/tau_lumbar_extension	lambda_cid13_p0	lambda_cid13_p1	lambda_cid13_p2	lambda_cid13_p3	lambda_cid13_p4	lambda_cid13_p5	lambda_cid14_p0	/jointset/ground_pelvis/pelvis_tilt/accel	/jointset/ground_pelvis/pelvis_tx/accel	/jointset/ground_pelvis/pelvis_ty/accel	/jointset/hip_l/hip_flexion_l/accel	/jointset/hip_l/hip_adduction_l/accel	/jointset/hip_l/hip_rotation_l/accel	/jointset/back/lumbar_extension/accel	/jointset/patellofemoral_l/patellar_flexion_l/accel	/jointset/knee_l/knee_flexion_l/accel	/jointset/knee_l/knee_adduction_l/accel	/jointset/knee_l/knee_rotation_l/accel	/jointset/ankle_l/ankle_angle_l/accel	/jointset/subtalar_l/subtalar_angle_l/accel	gamma_cid13_p0	gamma_cid13_p1	gamma_cid13_p2	gamma_cid13_p3	gamma_cid13_p4	gamma_cid13_p5	gamma_cid14_p0
0	-0.04134412183814204	0.06971843006171673	0.8960244547114847	0.1955292361009247	-0.3212296118862266	-0.4987896616371699	-0.137903700187828	0.07015350928390733	0.07015350928391206	-0.1745329155547011	-0.1324878630807539	-0.06701017130107029	0.00482919817508153	0	0	0	0	0	0	0	0	0	0	0	0	0	0.1123576037148463	-0.08004679715126588	-0.02957719733691415	-0.20830778952113	0.1350485345182275	-0.02482428716639401	-0.06167426197929042	6.590156217046408	4.683700156371777	4.564152037084761	29.04220060183933	-515.216042195902	-75.61854161473741	-40.31329869520652	-6.47777628646611	-2.931606544347261	-1.12782937543702	15.0273523591112	-1.959583492751981	2.967307549354925	-3.163388786323029	8.305770575716622	8.305770575718617	0.08332269716501359	-0.7481961186821581	-0.2654266237931052	-2.300493931524086	1.480057727666055e-08	1.346789921288932e-07	3.463536919998166e-08	-6.120752585998464e-09	7.058307677552888e-08	1.0991609085572e-07	1.683207406950112e-09
0.01	-0.04165632059950249	0.06957406112881596	0.8959695430241136	0.1962581681908961	-0.3213265276494372	-0.4986415659552819	-0.1380681138449718	0.07055641793883576	0.07055641793890229	-0.1745326933909216	-0.1325206241289076	-0.06702594010095582	0.004713961731514117	-0.06217526418776298	-0.02870107018052679	-0.01094601182371898	0.1450990586335891	-0.01929717337335027	0.02950498657038547	-0.03258366741005526	0.08022072264369619	0.08022072264370383	3.453828207357581e-05	-0.006495575105716833	-0.003087990633345966	-0.02291548018070755	0.1089015636911184	-0.08263699599267221	-0.0292119337248975	-0.2063554199495801	0.132694492172241	-0.02040732574503782	-0.0583934884687969	6.011228363066328	2.98378120844941	4.701521522641075	27.78304233098813	-515.9445540661866	-78.8031987821407	-40.32174080764374	-6.047736894114433	-2.813451018755905	-1.072524121654536	14.14807114166456	-1.901898147998672	2.924970280863125	-3.260996115787518	7.826071519977235	7.826071519977146	-0.03794540607030752	-0.5917427823215892	-0.3206139497046974	-2.267329531749795	-1.871577376157009e-08	1.528669474083228e-07	8.878546075471931e-08	1.741222564723665e-08	-1.38301311349673e-07	9.29810999214816e-08	-6.470170482841945e-09
0.02	-0.04258233908457224	0.06914786274134035	0.8958062638113423	0.1984174685724069	-0.3216138379240507	-0.4982018451936738	-0.138549392255708	0.07175070350250526	0.07175070350250605	-0.1745324188041421	-0.1326166418431836	-0.06707061454049387	0.004373519592058458	-0.1227639447428526	-0.05636589091496569	-0.02167350508001879	0.2860736583144723	-0.03807890228158174	0.05832501594008806	-0.06337295071776257	0.1582753817386345	0.1582753817386361	1.048457218509296e-05	-0.01265133324364219	-0.005781127930667165	-0.04504113917764627	0.1054455236669115	-0.08522719483409791	-0.02884667011353339	-0.2044030503781815	0.1303404498261569	-0.01599036432374866	-0.05511271495860767	5.48489576250278	1.273214653852766	4.842232587414178	26.48595456089118	-515.8448421557376	-81.86062207715061	-40.3465619222828	-6.160459559931597	-2.724356655129556	-1.08412566195319	14.20246056857004	-1.856494599728244	2.830316109218351	-2.804511965853555	7.872557865965024	7.872557865964272	0.07160429877255771	-0.6802327251238354	-0.1864559565880181	-2.142529694770265	-5.223212479980072e-08	1.710549026877524e-07	1.429355523094569e-07	4.094520388047177e-08	-3.471856994748749e-07	7.604610898724324e-08	-1.4623548372634e-08
0.03	-0.04410672566289341	0.06844981430797972	0.8955364754526047	0.2019672343682847	-0.3220861482243367	-0.4974775408415238	-0.1393289669045585	0.07371509585405613	0.07371509585401866	-0.1745322099250497	-0.1327728650069764	-0.06714059056383673	0.003815869273900103	-0.1818134345846544	-0.08310585979426145	-0.03227090055944962	0.4232046537099073	-0.05627935787036316	0.08640168404876399	-0.09225965227045879	0.2342311490941706	0.2342311490941831	3.056640522159179e-05	-0.01855405272523729	-0.008199804329012943	-0.06636353918839551	0.0998976625892234	-0.0806733458563466	-0.0280358370291691	-0.1993146157957448	0.1262626948779145	-0.01616384523944133	-0.05047543484873988	4.251685380209918	1.479790234835627	4.906038680353618	26.36257752626902	-515.3166602087719	-80.435560311476	-40.38681018879635	-5.732213186048914	-2.628118325404395	-1.045626855861669	13.36717662219069	-1.786264386770819	2.776198472520078	-2.888400233051411	7.4012982069797	7.401298206981731	-0.03286333154043843	-0.5393877305390451	-0.2674301071474299	-2.108330492734277	-7.160837132499979e-08	1.940615137625813e-07	1.713244013710972e-07	5.786381637809987e-08	-4.853352214247394e-07	7.627849780918772e-08	-1.778189234166565e-08
0.04	-0.04621261103757832	0.0674885059216116	0.8951610970660883	0.2068680616375692	-0.3227373517501753	-0.4964764985461285	-0.1403889387655473	0.07642788828644569	0.07642788828644613	-0.1745318149191201	-0.1329869345998345	-0.0672343246763009	0.003048747887932839	-0.2390637040162514	-0.1090178815164656	-0.04279151063582686	0.5562859529917684	-0.07385754739185632	0.1136726045905509	-0.1194523931461262	0.3079553979149779	0.3079553979150014	4.770995386966884e-05	-0.02422061904129351	-0.0105327457549417	-0.08693535273942778	0.09434980151173775	-0.07611949687859407	-0.02722500394431677	-0.1942261812133006	0.1221849399296932	-0.0163373261551266	-0.04583815473872359	3.065606131380775	1.678166670735596	4.971091847304296	26.20146096455544	-514.0528834790761	-78.89037849483307	-40.44139042883646	-5.800615477890795	-2.558767223711103	-1.068768581342473	13.39252134585526	-1.732041386270619	2.669166595840555	-2.4657198304479	7.426254159019262	7.426254159018492	0.07101664189481076	-0.6330020920160314	-0.1693089621044779	-1.992412402826825	-9.069306930353843e-08	2.171674785651503e-07	1.991820907937045e-07	7.464605020076699e-08	-6.220262925256278e-07	7.686485322404321e-08	-2.083724592057853e-08
0.05	-0.0488831557043461	0.06627231718952233	0.8946805781292918	0.2130811692799457	-0.3235612012416352	-0.4952066389700341	-0.1417115156532235	0.07986761820483802	0.07986761820483866	-0.1745309367987002	-0.1332566279814268	-0.06735052122492267	0.002079947226067536	-0.2947640010246066	-0.1340669715830702	-0.05331901898638285	0.6856682744812385	-0.09080717764477789	0.1401747897401327	-0.1447939056059577	0.3796178856646798	0.3796178856647132	0.0001146873651562028	-0.02966503859846712	-0.01268035450253729	-0.1066898659834196	0.08907157538056835	-0.0743122216977824	-0.02658936282499452	-0.1910188477543989	0.1198046490307206	-0.01489917015756309	-0.04148049933015274	2.49864695355049	1.153271163971578	5.054288667746863	25.40045019221537	-512.5980880787237	-78.86650405815102	-40.50891991582913	-5.412563575222109	-2.45503083523718	-1.045878811199567	12.61097171205106	-1.660663119151978	2.622040765886194	-2.528005136574579	6.980345260135036	6.980345260136938	-0.02739901016540009	-0.492184936447514	-0.2335540456669903	-1.946790089148304	-1.071452655700993e-07	2.389469169502945e-07	2.251517887313247e-07	8.978604367581842e-08	-7.103040503771043e-07	7.322317005663526e-08	-2.344282884252398e-08
0.06	-0.05210226869377051	0.06481022736934683	0.894094556739133	0.2205680769695291	-0.3245513948904961	-0.4936754982841715	-0.1432794353020612	0.08401279283617098	0.08401279283616955	-0.1745297763643403	-0.1335791701683592	-0.06748740730393622	0.0009176375709697793	-0.3487773685495768	-0.1581980991337162	-0.06389200130834222	0.8110459624330228	-0.1071263788716675	0.1659288265444864	-0.1685209453787613	0.4490443405019598	0.4490443405020062	0.0001041727400020585	-0.03479038011081933	-0.01467065183332398	-0.1256371513859294	0.08379334924936511	-0.07250494651696308	-0.02595372170570631	-0.1878115142954685	0.117424358131767	-0.01346101415998084	-0.03712284392163554	1.971894272781264	0.6215775939241281	5.138293491637	24.56671877382284	-510.5043131796859	-78.73445315780485	-40.58787405941661	-5.463229581213984	-2.375174720519253	-1.077863375623155	12.5915946383181	-1.605955581064263	2.51953692679495	-2.142825293042466	6.979047576534869	6.979047576534734	0.05551823460659727	-0.569186483051724	-0.1378466787425793	-1.830966834530411	-1.234866196593138e-07	2.606705015915471e-07	2.510419922906296e-07	1.048568901888649e-07	-7.965433529338686e-07	6.940346421207937e-08	-2.602947405259711e-08
